<?xml version="1.0" encoding="utf-8" ?>
<svg xmlns="http://www.w3.org/2000/svg" xmlns:xlink="http://www.w3.org/1999/xlink" width="1024" height="1024">
	<path fill="#010101" transform="scale(2 2)" d="M83.9219 102.186C91.851 101.946 99.8705 102.184 107.809 102.184L415.492 102.177C420.502 102.163 425.696 101.829 430.683 102.255C452.181 104.094 450.457 123.875 450.505 138.797L450.518 377.627C450.528 392.415 449.444 408.263 429.312 409.127C421.481 409.396 413.539 409.135 405.695 409.134L97.6826 409.134C87.6936 409.143 76.8886 410.746 68.8736 403.486C58.9859 394.529 61.7543 376.12 61.7961 363.688L61.7563 133.335C61.7523 117.569 64.5949 102.666 83.9219 102.186ZM430.189 397.232C442.97 393.377 438.732 371.331 438.739 359.911L438.751 172.294C429.396 171.915 419.898 172.332 410.527 172.316L109.262 172.292C100.564 172.297 91.2332 172.725 82.6005 172.294C79.6377 172.356 76.692 172.382 73.7293 172.294L73.7387 367.207C73.7358 373.765 73.2339 382.325 73.7669 388.647C74.7141 399.882 91.4262 397.234 99.0898 397.234L406.588 397.231C414.388 397.236 422.417 397.764 430.189 397.232ZM73.7293 160.23L429.312 160.23L438.751 160.23L438.76 136.696C438.739 111.508 435.444 113.99 413.88 113.986L107.03 113.985C99.4736 113.979 91.4172 113.218 83.9219 113.987C71.6353 115.28 73.7127 127.077 73.7161 136.054L73.7293 160.23Z"/>
	<path fill="#010101" transform="scale(2 2)" d="M218.368 303.251C226.701 302.94 225.847 310.673 225.807 316.851L225.792 351.502C225.822 361.323 228.566 368.754 216.209 368.962C194.071 369.333 171.864 368.955 149.718 368.963L125.48 368.973C105.057 368.985 107.654 368.802 107.691 350.479L107.706 322.813C107.746 317.456 105.862 309.598 109.107 304.968C121.943 296.638 119.518 318.448 119.515 323.859L119.506 357.129C150.909 357.134 182.359 356.762 213.755 357.129L213.778 323.568C213.795 316.891 211.239 306.019 218.368 303.251Z"/>
	<path fill="#010101" transform="scale(2 2)" d="M164.643 199.64C197.362 196.341 208.683 246.279 169.312 254.183C161.401 251.714 158.741 254.454 149.89 247.351C131.098 232.27 141.266 201.663 164.643 199.64ZM169.312 241.759C190.305 237.841 182.775 209.171 166.38 211.594C146.79 213.839 146.806 242.314 169.312 241.759Z"/>
	<path fill="#010101" transform="scale(2 2)" d="M273.083 319.531C303.213 319.844 333.377 319.542 363.512 319.539L388.989 319.534C392.348 319.532 396.145 319.106 399.442 319.483C406.899 320.335 407.41 331.353 397.812 331.496L285.977 331.468C281.356 331.49 276.526 331.859 271.926 331.525C263.788 330.933 263.253 320.081 273.083 319.531Z"/>
	<path fill="#010101" transform="scale(2 2)" d="M270.286 357.129C274.802 356.912 279.423 357.121 283.951 357.12L342.653 357.12C351.322 357.122 364.149 353.893 366.398 363.213C365.601 365.96 364.631 367.955 361.686 368.969C358.962 369.476 355.761 369.016 352.968 368.994L292.627 368.967C287.714 368.97 273.6 369.982 269.52 368.518C263.893 366.498 265.48 359.056 270.286 357.129Z"/>
	<path fill="#010101" transform="scale(2 2)" d="M356.693 207.782C360.371 207.534 362.406 210.62 363.34 213.753C361.561 220.277 359.02 226.514 356.768 232.878L343.734 269.078C341.232 275.994 337.071 294.469 330.699 296.425C326.83 296.172 324.841 294.618 323.606 290.852C325.086 284.071 328.782 274.886 331.173 268.247L348.694 219.688C350.482 214.66 351.077 209.538 356.693 207.782Z"/>
	<path fill="#010101" transform="scale(2 2)" d="M317.379 219.301C322.23 218.924 326.985 224.802 323.42 229.04C318.181 235.267 303.165 247.221 296.644 252.858C301.114 256.318 305.165 260.266 309.508 263.877C313.63 267.304 329.334 276.215 321.543 282.808C319.887 284.209 317.738 284.54 315.64 284.409C312.289 282.625 309.376 279.71 306.483 277.267L292.438 265.258C288.651 261.97 278.696 256.571 281.726 250.554C283.039 247.947 312.916 220.834 317.379 219.301Z"/>
	<path fill="#010101" transform="scale(2 2)" d="M369.883 219.301C374.334 218.994 392.872 236.785 396.814 240.278C401.868 244.756 407.241 246.646 406.156 254.183C404.507 256.842 379.319 279.41 375.173 282.533C369.206 285.245 363.393 278.41 367.856 273.1C372.761 267.263 385.574 258.008 392.037 251.601C386.512 246.347 366.518 231.837 364.553 226.042C365.491 222.579 366.124 220.532 369.883 219.301Z"/>
	<path fill="#010101" transform="scale(2 2)" d="M126.601 263.501C135.075 262.956 149.012 263.049 157.395 263.51C161.999 263.763 165.033 267.708 163.082 272.229C160.335 278.594 133.451 272.891 125.387 276.012C116.304 280.181 121.679 285.507 119.057 290.847C116.366 296.324 108.642 295.467 107.576 289.267C105.342 276.277 114.031 265.557 126.601 263.501Z"/>
	<path fill="#010101" transform="scale(2 2)" d="M176.75 263.501C182.265 263.177 187.988 263.5 193.524 263.509C204.913 263.529 218.539 261.371 224.269 274.149C226.615 279.381 228.303 291.356 221.061 294.255C210.22 296.593 216.138 280.537 210.861 276.012C201.742 273.905 176.277 278.55 173.023 271.748C171.437 268.435 173.58 264.739 176.75 263.501Z"/>
	<path fill="#010101" transform="scale(2 2)" d="M255.464 131.101C260.705 130.663 268.309 131.088 273.812 131.095L377.87 131.099C383.537 131.099 413.541 129.932 417.005 131.931C422.136 134.891 420.277 141.977 414.85 142.99L274.967 143.002C266.479 143.009 252.287 146.286 249.833 136.928C250.689 133.458 251.674 131.639 255.464 131.101Z"/>
	<path fill="#010101" transform="scale(2 2)" d="M141.904 131.101C144.381 130.816 146.892 131.094 149.379 131.085C155.577 131.061 159.386 129.923 161.454 136.928C160.254 140.802 158.918 142.506 154.675 142.99C149.155 142.972 143.491 143.326 137.99 142.99C132.833 137.555 134.416 131.553 141.904 131.101Z"/>
	<path fill="#010101" transform="scale(2 2)" d="M97.7398 131.101C100.208 130.836 110.704 130.809 113.124 131.138C120.207 132.103 119.344 142.146 112.561 142.99C108.275 142.877 97.6323 143.881 94.2487 141.661C89.3075 138.418 92.3887 131.685 97.7398 131.101Z"/>
	<path fill="#010101" transform="scale(2 2)" d="M182.276 131.101C190.173 131.183 200.164 127.809 202.349 136.928C201.596 140.093 200.223 142.511 196.705 142.99C188.791 142.939 178.994 145.927 176.75 136.928C177.486 133.557 178.578 131.492 182.276 131.101Z"/>
</svg>
